# xmcd
#
# Track frame offsets: 
#        150
#        24030
#        40460
#        62220
#        86475
#        109633
#        122775
#        135350
#        147165
#        169220
#        185560
#        240185
#
# Disc length: 3356 seconds
#
# Revision: 0
# Processed by: cddbd v1.5.2PL0 Copyright (c) Steve Scherf et al.
# Submitted via: ExactAudioCopy v0.95a5
#
DISCID=980d1a0c
DTITLE=Big Mojo Elem - Mojo Boogie
DYEAR=1997
DGENRE=Blues
TTITLE0=Drawing On Dry Land
TTITLE1=Every Night And Every Day
TTITLE2=Black Nights
TTITLE3=Hush
TTITLE4=Red Light
TTITLE5=Talk To Your Daughter
TTITLE6=Mojo Boogie
TTITLE7=Living In Paradise
TTITLE8=Hide Away
TTITLE9=Every Night And Every Day 2
TTITLE10=Long Meter Stomp
TTITLE11=Be My Little Girl
EXTD=
EXTT0=
EXTT1=
EXTT2=
EXTT3=
EXTT4=
EXTT5=
EXTT6=
EXTT7=
EXTT8=
EXTT9=
EXTT10=
EXTT11=
PLAYORDER=
